<svg width="137" height="40" viewBox="0 0 137 40" fill="none" xmlns="http://www.w3.org/2000/svg">
<path d="M1 20C1 10.0589 9.05888 2 19 2H133C135.209 2 137 3.79086 137 6V34C137 36.2091 135.209 38 133 38H19C9.05888 38 1 29.9411 1 20Z" fill="url(#paint0_linear_1_17360)"/>
<path d="M50.68 26V14.8H55.704C56.9947 14.8 57.9867 15.0613 58.68 15.584C59.3733 16.096 59.72 16.8 59.72 17.696C59.72 18.304 59.5813 18.816 59.304 19.232C59.0373 19.648 58.6747 19.968 58.216 20.192C57.7573 20.416 57.2613 20.528 56.728 20.528L57.016 20.048C57.656 20.048 58.2213 20.16 58.712 20.384C59.2027 20.608 59.592 20.9387 59.88 21.376C60.168 21.8027 60.312 22.336 60.312 22.976C60.312 23.936 59.9493 24.6827 59.224 25.216C58.5093 25.7387 57.4427 26 56.024 26H50.68ZM52.28 24.704H55.96C56.8453 24.704 57.5227 24.5547 57.992 24.256C58.4613 23.9573 58.696 23.488 58.696 22.848C58.696 22.1973 58.4613 21.7227 57.992 21.424C57.5227 21.1253 56.8453 20.976 55.96 20.976H52.136V19.68H55.56C56.3707 19.68 57 19.5307 57.448 19.232C57.896 18.9333 58.12 18.4853 58.12 17.888C58.12 17.2907 57.896 16.8427 57.448 16.544C57 16.2453 56.3707 16.096 55.56 16.096H52.28V24.704ZM66.1334 26.096C65.408 26.096 64.768 25.9627 64.2134 25.696C63.6694 25.4293 63.2427 25.024 62.9334 24.48C62.6347 23.9253 62.4854 23.232 62.4854 22.4V17.52H64.0214V22.224C64.0214 23.056 64.2187 23.68 64.6134 24.096C65.0187 24.512 65.584 24.72 66.3094 24.72C66.8427 24.72 67.3067 24.6133 67.7014 24.4C68.096 24.176 68.4 23.856 68.6134 23.44C68.8267 23.0133 68.9334 22.5013 68.9334 21.904V17.52H70.4694V26H69.0134V23.712L69.2534 24.32C68.976 24.8853 68.56 25.3227 68.0054 25.632C67.4507 25.9413 66.8267 26.096 66.1334 26.096ZM73.7615 29.2C73.3562 29.2 72.9615 29.1307 72.5775 28.992C72.1935 28.864 71.8628 28.672 71.5855 28.416L72.2415 27.264C72.4548 27.4667 72.6895 27.6213 72.9455 27.728C73.2015 27.8347 73.4735 27.888 73.7615 27.888C74.1348 27.888 74.4442 27.792 74.6895 27.6C74.9348 27.408 75.1642 27.0667 75.3775 26.576L75.9055 25.408L76.0655 25.216L79.3935 17.52H80.8975L76.7855 26.848C76.5402 27.4453 76.2628 27.9147 75.9535 28.256C75.6548 28.5973 75.3242 28.8373 74.9615 28.976C74.5988 29.1253 74.1988 29.2 73.7615 29.2ZM75.7775 26.272L71.9055 17.52H73.5055L76.8015 25.072L75.7775 26.272ZM86.8519 26V14.8H88.1639L95.5719 24H94.8839V14.8H96.4839V26H95.1719L87.7639 16.8H88.4519V26H86.8519ZM103.244 26.096C102.391 26.096 101.634 25.9093 100.972 25.536C100.311 25.1627 99.7883 24.6507 99.4043 24C99.0203 23.3387 98.8283 22.592 98.8283 21.76C98.8283 20.9173 99.0203 20.1707 99.4043 19.52C99.7883 18.8693 100.311 18.3627 100.972 18C101.634 17.6267 102.391 17.44 103.244 17.44C104.087 17.44 104.839 17.6267 105.5 18C106.172 18.3627 106.695 18.8693 107.068 19.52C107.452 20.16 107.644 20.9067 107.644 21.76C107.644 22.6027 107.452 23.3493 107.068 24C106.695 24.6507 106.172 25.1627 105.5 25.536C104.839 25.9093 104.087 26.096 103.244 26.096ZM103.244 24.752C103.788 24.752 104.274 24.6293 104.7 24.384C105.138 24.1387 105.479 23.792 105.724 23.344C105.97 22.8853 106.092 22.3573 106.092 21.76C106.092 21.152 105.97 20.6293 105.724 20.192C105.479 19.744 105.138 19.3973 104.7 19.152C104.274 18.9067 103.788 18.784 103.244 18.784C102.7 18.784 102.215 18.9067 101.788 19.152C101.362 19.3973 101.02 19.744 100.764 20.192C100.508 20.6293 100.38 21.152 100.38 21.76C100.38 22.3573 100.508 22.8853 100.764 23.344C101.02 23.792 101.362 24.1387 101.788 24.384C102.215 24.6293 102.7 24.752 103.244 24.752ZM111.326 26L108.174 17.52H109.63L112.43 25.2H111.742L114.654 17.52H115.95L118.798 25.2H118.126L120.99 17.52H122.366L119.198 26H117.726L115.054 18.992H115.502L112.798 26H111.326Z" fill="white"/>
<g filter="url(#filter0_ii_1_17360)">
<circle cx="20" cy="20" r="20" fill="url(#paint1_linear_1_17360)"/>
</g>
<g clip-path="url(#clip0_1_17360)">
<path d="M26.19 20.44L22.95 18.82C24.24 17.82 25.07 16.26 25.07 14.5C25.07 11.47 22.6 9 19.57 9C16.54 9 14.07 11.47 14.07 14.5C14.07 16.63 15.29 18.48 17.07 19.39V22.65C14.92 22.19 15.05 22.21 14.81 22.21C14.28 22.21 13.78 22.42 13.4 22.8L12 24.22L17.09 29.31C17.52 29.75 18.12 30 18.74 30H25.04C26.02 30 26.85 29.3 27.01 28.33L27.81 23.62C28.03 22.32 27.38 21.04 26.19 20.44ZM25.84 23.29L25.04 28H18.74C18.65 28 18.57 27.96 18.5 27.9L14.82 24.22L19.07 25.11V14.5C19.07 14.22 19.29 14 19.57 14C19.85 14 20.07 14.22 20.07 14.5V20.5H21.83L25.29 22.23C25.69 22.43 25.91 22.86 25.84 23.29ZM16.07 14.5C16.07 12.57 17.64 11 19.57 11C21.5 11 23.07 12.57 23.07 14.5C23.07 15.45 22.69 16.31 22.07 16.94V14.5C22.07 13.12 20.95 12 19.57 12C18.19 12 17.07 13.12 17.07 14.5V16.94C16.45 16.31 16.07 15.45 16.07 14.5Z" fill="white"/>
</g>
<defs>
<filter id="filter0_ii_1_17360" x="0" y="-4" width="40" height="48" filterUnits="userSpaceOnUse" color-interpolation-filters="sRGB">
<feFlood flood-opacity="0" result="BackgroundImageFix"/>
<feBlend mode="normal" in="SourceGraphic" in2="BackgroundImageFix" result="shape"/>
<feColorMatrix in="SourceAlpha" type="matrix" values="0 0 0 0 0 0 0 0 0 0 0 0 0 0 0 0 0 0 127 0" result="hardAlpha"/>
<feOffset dy="4"/>
<feGaussianBlur stdDeviation="2"/>
<feComposite in2="hardAlpha" operator="arithmetic" k2="-1" k3="1"/>
<feColorMatrix type="matrix" values="0 0 0 0 0 0 0 0 0 0 0 0 0 0 0 0 0 0 0.15 0"/>
<feBlend mode="normal" in2="shape" result="effect1_innerShadow_1_17360"/>
<feColorMatrix in="SourceAlpha" type="matrix" values="0 0 0 0 0 0 0 0 0 0 0 0 0 0 0 0 0 0 127 0" result="hardAlpha"/>
<feOffset dy="-4"/>
<feGaussianBlur stdDeviation="2"/>
<feComposite in2="hardAlpha" operator="arithmetic" k2="-1" k3="1"/>
<feColorMatrix type="matrix" values="0 0 0 0 0 0 0 0 0 0 0 0 0 0 0 0 0 0 0.15 0"/>
<feBlend mode="normal" in2="effect1_innerShadow_1_17360" result="effect2_innerShadow_1_17360"/>
</filter>
<linearGradient id="paint0_linear_1_17360" x1="69" y1="2" x2="69" y2="38" gradientUnits="userSpaceOnUse">
<stop stop-color="#71F9A9"/>
<stop offset="1" stop-color="#31B769"/>
</linearGradient>
<linearGradient id="paint1_linear_1_17360" x1="20" y1="0" x2="20" y2="40" gradientUnits="userSpaceOnUse">
<stop stop-color="#71F9A9"/>
<stop offset="1" stop-color="#31B769"/>
</linearGradient>
<clipPath id="clip0_1_17360">
<rect width="24" height="24" fill="white" transform="translate(8 8)"/>
</clipPath>
</defs>
</svg>
