<svg width="136" height="40" viewBox="0 0 136 40" fill="none" xmlns="http://www.w3.org/2000/svg">
<path d="M0 20C0 10.0589 8.05888 2 18 2H132C134.209 2 136 3.79086 136 6V34C136 36.2091 134.209 38 132 38H18C8.05888 38 0 29.9411 0 20Z" fill="url(#paint0_linear_1_17355)"/>
<path d="M54.736 26.128C53.872 26.128 53.0773 25.9893 52.352 25.712C51.6267 25.424 50.9973 25.024 50.464 24.512C49.9307 23.9893 49.5147 23.3813 49.216 22.688C48.9173 21.9947 48.768 21.232 48.768 20.4C48.768 19.568 48.9173 18.8053 49.216 18.112C49.5147 17.4187 49.9307 16.816 50.464 16.304C51.008 15.7813 51.6427 15.3813 52.368 15.104C53.0933 14.816 53.8933 14.672 54.768 14.672C55.6533 14.672 56.464 14.816 57.2 15.104C57.936 15.392 58.56 15.824 59.072 16.4L58.08 17.392C57.6213 16.944 57.12 16.6187 56.576 16.416C56.0427 16.2027 55.4613 16.096 54.832 16.096C54.192 16.096 53.5947 16.2027 53.04 16.416C52.496 16.6293 52.0213 16.928 51.616 17.312C51.2213 17.696 50.912 18.1547 50.688 18.688C50.4747 19.2107 50.368 19.7813 50.368 20.4C50.368 21.008 50.4747 21.5787 50.688 22.112C50.912 22.6347 51.2213 23.0933 51.616 23.488C52.0213 23.872 52.496 24.1707 53.04 24.384C53.584 24.5973 54.176 24.704 54.816 24.704C55.4133 24.704 55.984 24.6133 56.528 24.432C57.0827 24.24 57.5947 23.9253 58.064 23.488L58.976 24.704C58.4213 25.1733 57.7707 25.5307 57.024 25.776C56.288 26.0107 55.5253 26.128 54.736 26.128ZM57.44 24.496V20.336H58.976V24.704L57.44 24.496ZM65.4474 26.096C64.594 26.096 63.8367 25.9093 63.1754 25.536C62.514 25.1627 61.9914 24.6507 61.6074 24C61.2234 23.3387 61.0314 22.592 61.0314 21.76C61.0314 20.9173 61.2234 20.1707 61.6074 19.52C61.9914 18.8693 62.514 18.3627 63.1754 18C63.8367 17.6267 64.594 17.44 65.4474 17.44C66.29 17.44 67.042 17.6267 67.7034 18C68.3754 18.3627 68.898 18.8693 69.2714 19.52C69.6554 20.16 69.8474 20.9067 69.8474 21.76C69.8474 22.6027 69.6554 23.3493 69.2714 24C68.898 24.6507 68.3754 25.1627 67.7034 25.536C67.042 25.9093 66.29 26.096 65.4474 26.096ZM65.4474 24.752C65.9914 24.752 66.4767 24.6293 66.9034 24.384C67.3407 24.1387 67.682 23.792 67.9274 23.344C68.1727 22.8853 68.2954 22.3573 68.2954 21.76C68.2954 21.152 68.1727 20.6293 67.9274 20.192C67.682 19.744 67.3407 19.3973 66.9034 19.152C66.4767 18.9067 65.9914 18.784 65.4474 18.784C64.9034 18.784 64.418 18.9067 63.9914 19.152C63.5647 19.3973 63.2234 19.744 62.9674 20.192C62.7114 20.6293 62.5834 21.152 62.5834 21.76C62.5834 22.3573 62.7114 22.8853 62.9674 23.344C63.2234 23.792 63.5647 24.1387 63.9914 24.384C64.418 24.6293 64.9034 24.752 65.4474 24.752ZM79.1805 26.096C78.3272 26.096 77.6658 25.8667 77.1965 25.408C76.7272 24.9493 76.4925 24.2933 76.4925 23.44V15.664H78.0285V23.376C78.0285 23.8347 78.1405 24.1867 78.3645 24.432C78.5992 24.6773 78.9298 24.8 79.3565 24.8C79.8365 24.8 80.2365 24.6667 80.5565 24.4L81.0365 25.504C80.8018 25.7067 80.5192 25.856 80.1885 25.952C79.8685 26.048 79.5325 26.096 79.1805 26.096ZM75.0525 18.784V17.52H80.4605V18.784H75.0525ZM86.2443 26.096C85.3909 26.096 84.6336 25.9093 83.9723 25.536C83.3109 25.1627 82.7883 24.6507 82.4043 24C82.0203 23.3387 81.8283 22.592 81.8283 21.76C81.8283 20.9173 82.0203 20.1707 82.4043 19.52C82.7883 18.8693 83.3109 18.3627 83.9723 18C84.6336 17.6267 85.3909 17.44 86.2443 17.44C87.0869 17.44 87.8389 17.6267 88.5003 18C89.1723 18.3627 89.6949 18.8693 90.0683 19.52C90.4523 20.16 90.6443 20.9067 90.6443 21.76C90.6443 22.6027 90.4523 23.3493 90.0683 24C89.6949 24.6507 89.1723 25.1627 88.5003 25.536C87.8389 25.9093 87.0869 26.096 86.2443 26.096ZM86.2443 24.752C86.7883 24.752 87.2736 24.6293 87.7003 24.384C88.1376 24.1387 88.4789 23.792 88.7243 23.344C88.9696 22.8853 89.0923 22.3573 89.0923 21.76C89.0923 21.152 88.9696 20.6293 88.7243 20.192C88.4789 19.744 88.1376 19.3973 87.7003 19.152C87.2736 18.9067 86.7883 18.784 86.2443 18.784C85.7003 18.784 85.2149 18.9067 84.7883 19.152C84.3616 19.3973 84.0203 19.744 83.7643 20.192C83.5083 20.6293 83.3803 21.152 83.3803 21.76C83.3803 22.3573 83.5083 22.8853 83.7643 23.344C84.0203 23.792 84.3616 24.1387 84.7883 24.384C85.2149 24.6293 85.7003 24.752 86.2443 24.752ZM100.761 26.096C99.8974 26.096 99.124 25.9093 98.4414 25.536C97.7694 25.1627 97.2414 24.6507 96.8574 24C96.4734 23.3493 96.2814 22.6027 96.2814 21.76C96.2814 20.9173 96.4734 20.1707 96.8574 19.52C97.2414 18.8693 97.7694 18.3627 98.4414 18C99.124 17.6267 99.8974 17.44 100.761 17.44C101.529 17.44 102.212 17.5947 102.809 17.904C103.417 18.2027 103.887 18.6507 104.217 19.248L103.049 20C102.772 19.584 102.431 19.28 102.025 19.088C101.631 18.8853 101.204 18.784 100.745 18.784C100.191 18.784 99.6947 18.9067 99.2574 19.152C98.82 19.3973 98.4734 19.744 98.2174 20.192C97.9614 20.6293 97.8334 21.152 97.8334 21.76C97.8334 22.368 97.9614 22.896 98.2174 23.344C98.4734 23.792 98.82 24.1387 99.2574 24.384C99.6947 24.6293 100.191 24.752 100.745 24.752C101.204 24.752 101.631 24.656 102.025 24.464C102.431 24.2613 102.772 23.952 103.049 23.536L104.217 24.272C103.887 24.8587 103.417 25.312 102.809 25.632C102.212 25.9413 101.529 26.096 100.761 26.096ZM111.47 26V24.208L111.39 23.872V20.816C111.39 20.1653 111.198 19.664 110.814 19.312C110.441 18.9493 109.875 18.768 109.118 18.768C108.617 18.768 108.126 18.8533 107.646 19.024C107.166 19.184 106.761 19.4027 106.43 19.68L105.79 18.528C106.227 18.176 106.75 17.9093 107.358 17.728C107.977 17.536 108.622 17.44 109.294 17.44C110.457 17.44 111.353 17.7227 111.982 18.288C112.611 18.8533 112.926 19.7173 112.926 20.88V26H111.47ZM108.686 26.096C108.057 26.096 107.502 25.9893 107.022 25.776C106.553 25.5627 106.19 25.2693 105.934 24.896C105.678 24.512 105.55 24.08 105.55 23.6C105.55 23.1413 105.657 22.7253 105.87 22.352C106.094 21.9787 106.451 21.68 106.942 21.456C107.443 21.232 108.115 21.12 108.958 21.12H111.646V22.224H109.022C108.254 22.224 107.737 22.352 107.47 22.608C107.203 22.864 107.07 23.1733 107.07 23.536C107.07 23.952 107.235 24.288 107.566 24.544C107.897 24.7893 108.355 24.912 108.942 24.912C109.518 24.912 110.019 24.784 110.446 24.528C110.883 24.272 111.198 23.8987 111.39 23.408L111.694 24.464C111.491 24.9653 111.134 25.3653 110.622 25.664C110.11 25.952 109.465 26.096 108.686 26.096ZM115.769 26V17.52H117.241V19.824L117.097 19.248C117.331 18.6613 117.726 18.2133 118.281 17.904C118.835 17.5947 119.518 17.44 120.329 17.44V18.928C120.265 18.9173 120.201 18.912 120.137 18.912C120.083 18.912 120.03 18.912 119.977 18.912C119.155 18.912 118.505 19.1573 118.025 19.648C117.545 20.1387 117.305 20.848 117.305 21.776V26H115.769ZM125.477 26.096C124.624 26.096 123.963 25.8667 123.493 25.408C123.024 24.9493 122.789 24.2933 122.789 23.44V15.664H124.325V23.376C124.325 23.8347 124.437 24.1867 124.661 24.432C124.896 24.6773 125.227 24.8 125.653 24.8C126.133 24.8 126.533 24.6667 126.853 24.4L127.333 25.504C127.099 25.7067 126.816 25.856 126.485 25.952C126.165 26.048 125.829 26.096 125.477 26.096ZM121.349 18.784V17.52H126.757V18.784H121.349Z" fill="white"/>
<g filter="url(#filter0_ii_1_17355)">
<circle cx="20" cy="20" r="20" fill="url(#paint1_linear_1_17355)"/>
</g>
<g clip-path="url(#clip0_1_17355)">
<path d="M15 26C13.9 26 13.01 26.9 13.01 28C13.01 29.1 13.9 30 15 30C16.1 30 17 29.1 17 28C17 26.9 16.1 26 15 26ZM25 26C23.9 26 23.01 26.9 23.01 28C23.01 29.1 23.9 30 25 30C26.1 30 27 29.1 27 28C27 26.9 26.1 26 25 26ZM23.55 21C24.3 21 24.96 20.59 25.3 19.97L28.88 13.48C29.25 12.82 28.77 12 28.01 12H13.21L12.27 10H9V12H11L14.6 19.59L13.25 22.03C12.52 23.37 13.48 25 15 25H27V23H15L16.1 21H23.55ZM14.16 14H26.31L23.55 19H16.53L14.16 14Z" fill="white"/>
</g>
<defs>
<filter id="filter0_ii_1_17355" x="0" y="-4" width="40" height="48" filterUnits="userSpaceOnUse" color-interpolation-filters="sRGB">
<feFlood flood-opacity="0" result="BackgroundImageFix"/>
<feBlend mode="normal" in="SourceGraphic" in2="BackgroundImageFix" result="shape"/>
<feColorMatrix in="SourceAlpha" type="matrix" values="0 0 0 0 0 0 0 0 0 0 0 0 0 0 0 0 0 0 127 0" result="hardAlpha"/>
<feOffset dy="4"/>
<feGaussianBlur stdDeviation="2"/>
<feComposite in2="hardAlpha" operator="arithmetic" k2="-1" k3="1"/>
<feColorMatrix type="matrix" values="0 0 0 0 0 0 0 0 0 0 0 0 0 0 0 0 0 0 0.15 0"/>
<feBlend mode="normal" in2="shape" result="effect1_innerShadow_1_17355"/>
<feColorMatrix in="SourceAlpha" type="matrix" values="0 0 0 0 0 0 0 0 0 0 0 0 0 0 0 0 0 0 127 0" result="hardAlpha"/>
<feOffset dy="-4"/>
<feGaussianBlur stdDeviation="2"/>
<feComposite in2="hardAlpha" operator="arithmetic" k2="-1" k3="1"/>
<feColorMatrix type="matrix" values="0 0 0 0 0 0 0 0 0 0 0 0 0 0 0 0 0 0 0.15 0"/>
<feBlend mode="normal" in2="effect1_innerShadow_1_17355" result="effect2_innerShadow_1_17355"/>
</filter>
<linearGradient id="paint0_linear_1_17355" x1="68.4444" y1="-3.85" x2="68.4444" y2="45.65" gradientUnits="userSpaceOnUse">
<stop stop-color="#3F92FF"/>
<stop offset="1" stop-color="#0B3689"/>
</linearGradient>
<linearGradient id="paint1_linear_1_17355" x1="20.1307" y1="-6.5" x2="20.1307" y2="48.5" gradientUnits="userSpaceOnUse">
<stop stop-color="#3F92FF"/>
<stop offset="1" stop-color="#0B3689"/>
</linearGradient>
<clipPath id="clip0_1_17355">
<rect width="24" height="24" fill="white" transform="translate(8 8)"/>
</clipPath>
</defs>
</svg>
